<svg width="132" height="128" viewBox="0 0 132 128" fill="none" xmlns="http://www.w3.org/2000/svg">
<rect y="0.11377" width="132" height="127.525" fill="#161A2B"/>
<path d="M62.2278 43.8368C53.3848 43.8368 46.1992 50.7788 46.1992 59.322C46.1992 67.8652 53.3848 74.8073 62.2278 74.8073C65.7267 74.8073 68.9604 73.7184 71.5974 71.8753L84.0019 83.8308L86.6537 81.2689L74.3965 69.3988C76.8052 66.6875 78.2564 63.1684 78.2564 59.322C78.2564 50.7788 71.0708 43.8368 62.2278 43.8368ZM62.2278 45.6586C70.0506 45.6586 76.3706 51.7644 76.3706 59.322C76.3706 66.8796 70.0506 72.9855 62.2278 72.9855C54.405 72.9855 48.0849 66.8796 48.0849 59.322C48.0849 51.7644 54.405 45.6586 62.2278 45.6586Z" fill="white"/>
<path fill-rule="evenodd" clip-rule="evenodd" d="M65.7361 53.4581L58.3193 58.4223L61.2057 60.0357C61.6133 60.2636 61.7322 60.8015 61.4713 61.2372L58.8705 65.5799L66.3306 60.6891L63.3789 59.0392C62.9712 58.8113 62.8523 58.2734 63.1133 57.8377L65.7361 53.4581ZM66.4538 51.7508C67.09 51.325 67.7885 52.0052 67.3932 52.6654L64.0935 58.175L67.3901 60.0177C67.8361 60.267 67.8167 60.9345 67.3547 61.2374L58.1634 67.2633C57.5269 67.6806 56.837 67.0014 57.2303 66.3446L60.4911 60.8999L57.2654 59.0968C56.8221 58.849 56.838 58.1868 57.2946 57.8812L66.4538 51.7508Z" fill="white"/>
</svg>
