<svg width="132" height="128" viewBox="0 0 132 128" fill="none" xmlns="http://www.w3.org/2000/svg">
<rect y="0.11377" width="132" height="127.525" fill="#161A2B"/>
<path fill-rule="evenodd" clip-rule="evenodd" d="M46.996 47.9358C45.7443 47.9358 44.7861 48.8615 44.7861 50.0707V77.8246C44.7861 79.3896 46.1126 80.6711 47.7326 80.6711C47.7326 80.6711 82.7951 80.6711 83.3843 80.6711C86.0361 80.6711 86.0361 79.5325 86.0361 78.3939V56.4754V55.0522V54.3405C86.0361 53.1313 85.078 52.2056 83.8263 52.2056H65.1896C64.5997 52.2056 64.0847 51.9916 63.6416 51.5635L60.9196 48.9338C60.2549 48.2916 59.2967 47.9358 58.3414 47.9358H46.996ZM46.996 49.3591H58.3414C58.9284 49.3591 59.4435 49.5731 59.8866 50.0012L62.6115 52.6309C63.2732 53.2731 64.2314 53.6289 65.1896 53.6289H83.8263C84.2694 53.6289 84.5629 53.9124 84.5629 54.3405V72.1315H55.8103C55.4172 72.1315 55.0986 72.4501 55.0986 72.8431C55.0986 73.2361 55.4172 73.5547 55.8103 73.5547H84.5629V77.8246V79.2478H47.7326C46.9211 79.2478 46.2593 78.6085 46.2593 77.8246V73.5547V72.1315V50.0707C46.2593 49.6426 46.5528 49.3591 46.996 49.3591ZM51.4156 57.8987C50.9725 57.8987 50.679 58.1823 50.679 58.6104C50.679 59.0384 50.9725 59.322 51.4156 59.322H62.4647C62.9078 59.322 63.2013 59.0384 63.2013 58.6104C63.2013 58.1823 62.9078 57.8987 62.4647 57.8987H51.4156ZM51.4156 60.7453C50.9725 60.7453 50.679 61.0288 50.679 61.4569C50.679 61.885 50.9725 62.1685 51.4156 62.1685H57.8977C58.3409 62.1685 58.6343 61.885 58.6343 61.4569C58.6343 61.0288 58.3409 60.7453 57.8977 60.7453H51.4156Z" fill="white"/>
</svg>
